<svg width="32" height="32" viewBox="0 0 32 32" fill="none" xmlns="http://www.w3.org/2000/svg">
  <!-- Modern gradient background -->
  <defs>
    <linearGradient id="bgGradient" x1="0%" y1="0%" x2="100%" y2="100%">
      <stop offset="0%" style="stop-color:#3B82F6;stop-opacity:1" />
      <stop offset="100%" style="stop-color:#1D4ED8;stop-opacity:1" />
    </linearGradient>
    <linearGradient id="accentGradient" x1="0%" y1="0%" x2="100%" y2="100%">
      <stop offset="0%" style="stop-color:#60A5FA;stop-opacity:1" />
      <stop offset="100%" style="stop-color:#3B82F6;stop-opacity:1" />
    </linearGradient>
  </defs>
  
  <!-- Rounded background -->
  <rect width="32" height="32" rx="8" fill="url(#bgGradient)"/>
  
  <!-- Modern A letter -->
  <path d="M10 22L12 18H20L22 22M12 18L16 10L20 18" stroke="white" stroke-width="2.5" stroke-linecap="round" stroke-linejoin="round"/>
  
  <!-- Brain curves with accent color -->
  <path d="M12 16C13 15.5 14.5 15 16 15C17.5 15 19 15.5 20 16" stroke="url(#accentGradient)" stroke-width="1.5" stroke-linecap="round"/>
  <path d="M12 18C13 17.5 14.5 17 16 17C17.5 17 19 17.5 20 18" stroke="url(#accentGradient)" stroke-width="1.5" stroke-linecap="round"/>
  
  <!-- AI dots in modern positions -->
  <circle cx="26" cy="6" r="1.5" fill="#10B981"/>
  <circle cx="6" cy="26" r="1.5" fill="#F59E0B"/>
  <circle cx="26" cy="26" r="1.5" fill="#EF4444"/>
  
  <!-- Subtle glow effect -->
  <circle cx="16" cy="16" r="14" stroke="rgba(255,255,255,0.1)" stroke-width="1" fill="none"/>
</svg> 