<svg width="32" height="32" viewBox="0 0 32 32" fill="none" xmlns="http://www.w3.org/2000/svg">
  <!-- Background circle -->
  <circle cx="16" cy="16" r="15" fill="#3B82F6"/>
  
  <!-- Brain symbol -->
  <path d="M16 8C18.5 8 20.5 9.5 21.5 11.5C22.5 13.5 22.5 15.5 21.5 17.5C20.5 19.5 18.5 21 16 21C13.5 21 11.5 19.5 10.5 17.5C9.5 15.5 9.5 13.5 10.5 11.5C11.5 9.5 13.5 8 16 8Z" fill="white"/>
  
  <!-- Brain curves -->
  <path d="M12 13C12.5 12.5 13.5 12 14.5 12C15.5 12 16.5 12.5 17 13" stroke="#3B82F6" stroke-width="1.5" stroke-linecap="round"/>
  <path d="M12 15C12.5 14.5 13.5 14 14.5 14C15.5 14 16.5 14.5 17 15" stroke="#3B82F6" stroke-width="1.5" stroke-linecap="round"/>
  <path d="M12 17C12.5 16.5 13.5 16 14.5 16C15.5 16 16.5 16.5 17 17" stroke="#3B82F6" stroke-width="1.5" stroke-linecap="round"/>
  
  <!-- AI dots -->
  <circle cx="22" cy="10" r="1.5" fill="#10B981"/>
  <circle cx="10" cy="22" r="1.5" fill="#F59E0B"/>
  <circle cx="22" cy="22" r="1.5" fill="#EF4444"/>
</svg> 